<svg width="40" height="40" viewBox="0 0 40 40" fill="none" xmlns="http://www.w3.org/2000/svg">
<path d="M20.5747 34.9956C17.1043 34.9956 14.281 32.2025 14.281 28.7694C14.281 26.7448 15.2576 24.8958 16.8584 23.7421V8.94993C16.8583 6.92267 18.5255 5.27344 20.5747 5.27344C22.6238 5.27344 24.291 6.92267 24.291 8.94993V23.7421C25.8917 24.8958 26.8683 26.7448 26.8683 28.7694C26.8683 32.2025 24.045 34.9956 20.5747 34.9956V34.9956Z" fill="#E3F2FF"/>
<path d="M24.291 23.7421V8.94987C24.291 6.92267 22.6239 5.27344 20.5747 5.27344C20.1229 5.27344 19.6898 5.35384 19.2889 5.50053C20.7063 6.01928 21.7195 7.36966 21.7195 8.94993V28.806L24.2968 28.7695C24.2968 31.7668 22.1448 34.276 19.2889 34.8648C19.7042 34.9504 20.1342 34.9957 20.5747 34.9957C24.0451 34.9957 26.8684 32.2026 26.8684 28.7695C26.8684 26.7448 25.8918 24.8958 24.291 23.7421Z" fill="#CFE9FF"/>
<path d="M19.4308 14.8804V9.00268C19.4308 8.37869 19.944 7.87109 20.5747 7.87109C21.2054 7.87109 21.7185 8.37875 21.7185 9.00268V14.8804H19.4308Z" fill="#99CAF7"/>
<path d="M21.7185 14.8799V24.9697C21.7185 25.1418 21.8237 25.2969 21.9846 25.3622C23.3886 25.9315 24.2958 27.2688 24.2958 28.7692C24.2958 30.7991 22.6265 32.4504 20.5746 32.4504C18.5227 32.4504 16.8534 30.7991 16.8534 28.7692C16.8534 27.2689 17.7606 25.9315 19.1646 25.3622C19.3256 25.2969 19.4307 25.1418 19.4307 24.9697V14.8799H21.7185Z" fill="#FF4C30"/>
<path d="M24.2228 21.4395H23.4411C23.1934 21.4395 22.9926 21.6403 22.9926 21.888C22.9926 22.1357 23.1934 22.3365 23.4411 22.3365H24.2228C24.4705 22.3365 24.6713 22.1357 24.6713 21.888C24.6713 21.6403 24.4705 21.4395 24.2228 21.4395Z" fill="#99CAF7"/>
<path d="M24.2228 19.082H23.4411C23.1934 19.082 22.9926 19.2828 22.9926 19.5305C22.9926 19.7782 23.1934 19.979 23.4411 19.979H24.2228C24.4705 19.979 24.6713 19.7782 24.6713 19.5305C24.6713 19.2828 24.4705 19.082 24.2228 19.082Z" fill="#99CAF7"/>
<path d="M24.2228 16.7256H23.4411C23.1934 16.7256 22.9926 16.9264 22.9926 17.1741C22.9926 17.4218 23.1934 17.6226 23.4411 17.6226H24.2228C24.4705 17.6226 24.6713 17.4218 24.6713 17.1741C24.6713 16.9264 24.4705 16.7256 24.2228 16.7256Z" fill="#99CAF7"/>
<path d="M24.2228 14.3691H23.4411C23.1934 14.3691 22.9926 14.5699 22.9926 14.8176C22.9926 15.0653 23.1934 15.2661 23.4411 15.2661H24.2228C24.4705 15.2661 24.6713 15.0653 24.6713 14.8176C24.6713 14.5699 24.4705 14.3691 24.2228 14.3691Z" fill="#99CAF7"/>
<path d="M24.2228 12.0117H23.4411C23.1934 12.0117 22.9926 12.2125 22.9926 12.4602C22.9926 12.7079 23.1934 12.9087 23.4411 12.9087H24.2228C24.4705 12.9087 24.6713 12.7079 24.6713 12.4602C24.6713 12.2126 24.4705 12.0117 24.2228 12.0117Z" fill="#99CAF7"/>
<path d="M23.4411 10.5523H24.2228C24.4705 10.5523 24.6713 10.3515 24.6713 10.1038C24.6713 9.85607 24.4705 9.65527 24.2228 9.65527H23.4411C23.1934 9.65527 22.9926 9.85607 22.9926 10.1038C22.9926 10.3515 23.1934 10.5523 23.4411 10.5523Z" fill="#99CAF7"/>
<path d="M11.2521 12.3366C11.8659 11.2758 13.4006 11.2758 14.0144 12.3366L15.7824 15.3918L17.5504 18.4469C18.1643 19.5077 17.397 20.8336 16.1693 20.8336H12.6332H9.09722C7.8695 20.8336 7.10218 19.5076 7.71607 18.4469L9.48407 15.3918L11.2521 12.3366Z" fill="#FF4C30"/>
<path d="M17.5504 18.4467L15.7824 15.3915L14.0144 12.3363C13.4552 11.3701 12.1325 11.2845 11.4371 12.0783C11.5052 12.156 11.5675 12.2418 11.6223 12.3363L13.3903 15.3915L15.1583 18.4467C15.7721 19.5075 15.0048 20.8333 13.7771 20.8333H16.1692C17.397 20.8334 18.1643 19.5075 17.5504 18.4467V18.4467Z" fill="#FF2E0D"/>
<path d="M12.6333 13.5791C12.3856 13.5791 12.1848 13.7799 12.1848 14.0276V17.1705C12.1848 17.4182 12.3856 17.619 12.6333 17.619C12.881 17.619 13.0818 17.4182 13.0818 17.1705V14.0276C13.0818 13.7799 12.881 13.5791 12.6333 13.5791Z" fill="white"/>
<path d="M12.6333 18.3838C12.0561 18.3838 12.0552 19.2809 12.6333 19.2809C13.2105 19.2809 13.2115 18.3838 12.6333 18.3838Z" fill="white"/>
<path d="M29.1341 10.5286L27.8929 9.45622C27.727 9.31277 27.4723 9.31277 27.3064 9.45622L26.0652 10.5286C25.8778 10.6906 25.8571 10.9738 26.0191 11.1612C26.181 11.3487 26.4643 11.3693 26.6517 11.2074L27.1512 10.7758V19.3951C27.1512 19.6428 27.352 19.8436 27.5997 19.8436C27.8474 19.8436 28.0482 19.6428 28.0482 19.3951V10.7759L28.5477 11.2074C28.6325 11.2807 28.7368 11.3166 28.8407 11.3166C28.9665 11.3166 29.0916 11.2639 29.1803 11.1613C29.3423 10.9738 29.3215 10.6906 29.1341 10.5286Z" fill="#FF4C30"/>
<path d="M32.4511 15.1038L31.2099 14.0314C31.0441 13.888 30.7893 13.888 30.6234 14.0314L29.3822 15.1038C29.1948 15.2658 29.1741 15.549 29.3361 15.7364C29.498 15.9238 29.7813 15.9446 29.9687 15.7826L30.4682 15.351V23.9703C30.4682 24.218 30.669 24.4188 30.9167 24.4188C31.1644 24.4188 31.3652 24.218 31.3652 23.9703V15.3511L31.8647 15.7826C31.9495 15.8559 32.0538 15.8918 32.1577 15.8918C32.2835 15.8918 32.4086 15.8391 32.4973 15.7365C32.6592 15.549 32.6385 15.2658 32.4511 15.1038V15.1038Z" fill="#FF4C30"/>
<path d="M18.9975 29.2217C18.7497 29.2217 18.549 29.0209 18.549 28.7732C18.549 27.9536 19.0438 27.2233 19.8095 26.9129C20.0389 26.8198 20.3006 26.9304 20.3937 27.16C20.4868 27.3896 20.3762 27.6511 20.1466 27.7442C19.721 27.9167 19.446 28.3207 19.446 28.7732C19.446 29.0209 19.2452 29.2217 18.9975 29.2217V29.2217Z" fill="white"/>
</svg>
