<svg width="40" height="40" viewBox="0 0 40 40" fill="none" xmlns="http://www.w3.org/2000/svg">
<path d="M23.5442 30.146C21.9427 32.9136 17.9387 32.9136 16.3372 30.146L11.7245 22.1751L7.11183 14.2043C5.51035 11.4367 7.51227 7.97752 10.7152 7.97752L19.9408 7.97752L29.1661 7.97752C32.3692 7.97752 34.3712 11.4369 32.7695 14.2043L28.1568 22.1752L23.5442 30.146Z" fill="#FF4C30"/>
<path d="M7.11181 14.2049L11.7245 22.1758L16.3372 30.1467C17.796 32.6675 21.247 32.891 23.0612 30.8199C22.8837 30.6171 22.721 30.3934 22.5782 30.1467L17.9655 22.1758L13.3528 14.2049C11.7513 11.4374 13.7532 7.97817 16.9563 7.97817L10.7154 7.97817C7.51211 7.97802 5.51019 11.4374 7.11181 14.2049V14.2049Z" fill="#FF2E0D"/>
</svg>
