<svg width="65" height="54" viewBox="0 0 65 54" fill="none" xmlns="http://www.w3.org/2000/svg">
<path d="M0.702 44.97V43.386C0.702 41.718 1.14 40.416 2.016 39.48C2.892 38.544 4.104 38.076 5.652 38.076C7.2 38.076 8.442 38.544 9.378 39.48C10.038 40.14 10.368 41.13 10.368 42.45H8.028C8.028 41.022 7.266 40.308 5.742 40.308C5.286 40.308 4.896 40.398 4.572 40.578C4.26 40.746 4.026 40.944 3.87 41.172C3.714 41.4 3.594 41.736 3.51 42.18C3.426 42.624 3.378 42.996 3.366 43.296C3.354 43.596 3.348 43.998 3.348 44.502C3.348 45.006 3.348 45.348 3.348 45.528C3.36 45.696 3.378 45.978 3.402 46.374C3.438 46.758 3.486 47.034 3.546 47.202C3.618 47.37 3.714 47.586 3.834 47.85C3.966 48.114 4.128 48.3 4.32 48.408C4.812 48.72 5.37 48.876 5.994 48.876C7.038 48.876 7.776 48.432 8.208 47.544V46.68H6.66V44.592H10.35V48.462C9.978 49.338 9.39 49.998 8.586 50.442C7.782 50.886 6.87 51.108 5.85 51.108C4.038 51.108 2.724 50.604 1.908 49.596C1.104 48.576 0.702 47.034 0.702 44.97ZM24.4569 51H21.5589L19.0569 46.248H17.2569V51H14.7549V40.938C14.7549 39.978 14.9769 39.282 15.4209 38.85C15.8649 38.406 16.6089 38.184 17.6529 38.184H19.7769C21.0489 38.184 22.0569 38.574 22.8009 39.354C23.5569 40.122 23.9349 41.1 23.9349 42.288C23.9349 43.152 23.7069 43.902 23.2509 44.538C22.8069 45.162 22.2549 45.594 21.5949 45.834L24.4569 51ZM19.6149 44.16C20.1429 44.16 20.5749 43.98 20.9109 43.62C21.2589 43.248 21.4329 42.792 21.4329 42.252C21.4329 41.7 21.2649 41.256 20.9289 40.92C20.6049 40.584 20.1669 40.416 19.6149 40.416H18.3729C17.6289 40.416 17.2569 40.794 17.2569 41.55V44.16H19.6149ZM36.7743 51H32.2383C30.7983 51 29.7843 50.754 29.1963 50.262C28.6203 49.758 28.3323 48.876 28.3323 47.616V38.184H36.7743V40.416H30.8343V43.422H34.9923L34.8123 45.654H30.8343V47.436C30.8343 47.94 30.9483 48.288 31.1763 48.48C31.4043 48.672 31.8183 48.768 32.4183 48.768H36.7743V51ZM49.4727 51H44.9367C43.4967 51 42.4827 50.754 41.8947 50.262C41.3187 49.758 41.0307 48.876 41.0307 47.616V38.184H49.4727V40.416H43.5327V43.422H47.6907L47.5107 45.654H43.5327V47.436C43.5327 47.94 43.6467 48.288 43.8747 48.48C44.1027 48.672 44.5167 48.768 45.1167 48.768H49.4727V51ZM63.7192 38.184V49.704C63.7192 50.1 63.5992 50.442 63.3592 50.73C63.1192 51.006 62.8372 51.144 62.5132 51.144C61.6852 51.144 61.0072 50.664 60.4792 49.704L56.0512 42.774V51H53.5492V38.184H55.9612L61.2172 46.572V38.184H63.7192Z" fill="#46BE3C"/>
<path d="M49.4015 6.93181C53.8399 11.3702 56.3333 17.3899 56.3333 23.6667V30.6667C56.3333 31.403 55.7364 32 55 32H10.3333C9.59695 32 9 31.403 9 30.6667V23.6667C9 17.3899 11.4934 11.3702 15.9318 6.9318C20.3702 2.49344 26.3899 0 32.6667 0C38.9435 0 44.9632 2.49345 49.4015 6.93181Z" fill="#FFFEF5"/>
<path d="M52.3333 23.0007C52.3333 17.7847 50.2613 12.7824 46.5731 9.09422C42.8849 5.406 37.8826 3.33398 32.6667 3.33398C27.4507 3.33398 22.4485 5.406 18.7602 9.09422C15.072 12.7824 13 17.7847 13 23.0006L52.3333 23.0007Z" fill="#FFFCE6"/>
<path d="M50 23C50 18.4913 48.2089 14.1673 45.0208 10.9792C41.8327 7.79107 37.5087 6 33 6C28.4913 6 24.1673 7.79107 20.9792 10.9792C17.7911 14.1673 16 18.4913 16 23L50 23Z" fill="#FEF7B9"/>
<path fill-rule="evenodd" clip-rule="evenodd" d="M54 23.0192C54 17.3613 51.7524 11.935 47.7516 7.93426C43.7508 3.93349 38.3246 1.68587 32.6667 1.68587C27.0087 1.68587 21.5825 3.93348 17.5817 7.93426C13.5809 11.935 11.3333 17.3612 11.3333 23.0192V29.315C11.3333 29.8673 11.781 30.315 12.3333 30.315H53C53.5523 30.315 54 29.8673 54 29.315V23.0192ZM54.3333 23.0192C54.3333 17.2728 52.0506 11.7618 47.9873 7.69856C43.924 3.63527 38.413 1.35254 32.6667 1.35254C26.9203 1.35254 21.4093 3.63527 17.346 7.69856C13.2827 11.7618 11 17.2728 11 23.0192V29.315C11 30.0514 11.597 30.6483 12.3333 30.6483H53C53.7364 30.6483 54.3333 30.0514 54.3333 29.315V23.0192Z" fill="#46BE3C"/>
<path d="M48 23C48 19.0218 46.4196 15.2064 43.6066 12.3934C40.7936 9.58035 36.9782 8 33 8C29.0218 8 25.2064 9.58035 22.3934 12.3934C19.5804 15.2064 18 19.0218 18 23L48 23Z" fill="#FCEA4E"/>
<rect x="32.334" y="17.999" width="0.333333" height="5.66667" fill="#46BE3C"/>
<path d="M40.9479 15.4691C38.8261 14.9328 33.7843 14.0978 32.6491 17.8852C32.5836 18.1039 32.6537 18.3443 32.8268 18.4931C35.6947 20.9588 39.3163 18.3615 41.2204 16.4614C41.5548 16.1277 41.4059 15.5849 40.9479 15.4691Z" fill="#46BE3C"/>
<path d="M24.164 15.4691C26.2858 14.9328 31.3276 14.0978 32.4628 17.8852C32.5283 18.1039 32.4581 18.3443 32.2851 18.4931C29.4171 20.9588 25.7956 18.3615 23.8915 16.4614C23.5571 16.1277 23.706 15.5849 24.164 15.4691Z" fill="#46BE3C"/>
<path fill-rule="evenodd" clip-rule="evenodd" d="M40.3335 15.9918C40.3379 16.0837 40.2669 16.1618 40.1749 16.1662C38.4308 16.2489 37.2804 16.4144 36.3001 16.7208C35.3206 17.0269 34.5017 17.4763 33.4211 18.1416C33.3427 18.1899 33.24 18.1654 33.1918 18.0871C33.1435 18.0087 33.1679 17.906 33.2463 17.8578C34.3324 17.1891 35.1801 16.7215 36.2006 16.4026C37.2203 16.084 38.4032 15.9165 40.1591 15.8332C40.2511 15.8288 40.3291 15.8998 40.3335 15.9918Z" fill="#B2E5AE"/>
<path fill-rule="evenodd" clip-rule="evenodd" d="M27.501 16.8324C28.811 16.8324 30.4386 17.1606 31.7343 18.1324C31.8079 18.1876 31.9124 18.1727 31.9676 18.099C32.0229 18.0254 32.0079 17.9209 31.9343 17.8657C30.5633 16.8375 28.8576 16.499 27.501 16.499C27.4089 16.499 27.3343 16.5736 27.3343 16.6657C27.3343 16.7577 27.4089 16.8324 27.501 16.8324Z" fill="#B2E5AE"/>
<rect x="12.667" y="22.999" width="40" height="0.666667" rx="0.333333" fill="#8C654E"/>
<path d="M48.4606 24.8691V28.2825C48.4606 28.3998 48.425 28.5011 48.3539 28.5865C48.2828 28.6683 48.1993 28.7091 48.1033 28.7091C47.8579 28.7091 47.657 28.5669 47.5006 28.2825L46.1886 26.2291V28.6665H45.4473V24.8691H46.1619L47.7193 27.3545V24.8691H48.4606Z" fill="#46BE3C"/>
<path d="M44.2386 28.6665H42.8946C42.468 28.6665 42.1675 28.5936 41.9933 28.4478C41.8226 28.2985 41.7373 28.0371 41.7373 27.6638V24.8691H44.2386V25.5305H42.4786V26.4211H43.7106L43.6573 27.0825H42.4786V27.6105C42.4786 27.7598 42.5124 27.8629 42.58 27.9198C42.6475 27.9767 42.7702 28.0051 42.948 28.0051H44.2386V28.6665Z" fill="#46BE3C"/>
<path d="M40.4759 28.6665H39.1319C38.7053 28.6665 38.4048 28.5936 38.2306 28.4478C38.0599 28.2985 37.9746 28.0371 37.9746 27.6638V24.8691H40.4759V25.5305H38.7159V26.4211H39.9479L39.8946 27.0825H38.7159V27.6105C38.7159 27.7598 38.7497 27.8629 38.8173 27.9198C38.8848 27.9767 39.0075 28.0051 39.1853 28.0051H40.4759V28.6665Z" fill="#46BE3C"/>
<path d="M36.8268 28.6665H35.9681L35.2268 27.2585H34.6935V28.6665H33.9521V25.6851C33.9521 25.4007 34.0179 25.1945 34.1495 25.0665C34.281 24.9349 34.5015 24.8691 34.8108 24.8691H35.4401C35.817 24.8691 36.1157 24.9847 36.3361 25.2158C36.5602 25.4434 36.6721 25.7331 36.6721 26.0851C36.6721 26.3411 36.6046 26.5634 36.4695 26.7518C36.3379 26.9367 36.1744 27.0647 35.9788 27.1358L36.8268 28.6665ZM35.3921 26.6398C35.5486 26.6398 35.6766 26.5865 35.7761 26.4798C35.8793 26.3696 35.9308 26.2345 35.9308 26.0745C35.9308 25.9109 35.881 25.7794 35.7815 25.6798C35.6855 25.5803 35.5557 25.5305 35.3921 25.5305H35.0241C34.8037 25.5305 34.6935 25.6425 34.6935 25.8665V26.6398H35.3921Z" fill="#46BE3C"/>
<path d="M29.7881 26.8796V26.4102C29.7881 25.916 29.9179 25.5302 30.1774 25.2529C30.437 24.9756 30.7961 24.8369 31.2548 24.8369C31.7134 24.8369 32.0814 24.9756 32.3588 25.2529C32.5543 25.4485 32.6521 25.7418 32.6521 26.1329H31.9588C31.9588 25.7098 31.733 25.4982 31.2814 25.4982C31.1463 25.4982 31.0308 25.5249 30.9348 25.5782C30.8423 25.628 30.773 25.6867 30.7268 25.7542C30.6805 25.8218 30.645 25.9214 30.6201 26.0529C30.5952 26.1845 30.581 26.2947 30.5774 26.3836C30.5739 26.4725 30.5721 26.5916 30.5721 26.7409C30.5721 26.8902 30.5721 26.9916 30.5721 27.0449C30.5756 27.0947 30.581 27.1782 30.5881 27.2956C30.5988 27.4094 30.613 27.4911 30.6308 27.5409C30.6521 27.5907 30.6805 27.6547 30.7161 27.7329C30.7552 27.8111 30.8032 27.8662 30.8601 27.8982C31.0059 27.9907 31.1712 28.0369 31.3561 28.0369C31.6654 28.0369 31.8841 27.9054 32.0121 27.6422V27.3862H31.5534V26.7676H32.6468V27.9142C32.5365 28.1738 32.3623 28.3694 32.1241 28.5009C31.8859 28.6325 31.6156 28.6982 31.3134 28.6982C30.7765 28.6982 30.3872 28.5489 30.1454 28.2502C29.9072 27.948 29.7881 27.4911 29.7881 26.8796Z" fill="#46BE3C"/>
<path d="M27.1934 28.6664H26.1854C25.8654 28.6664 25.64 28.6117 25.5094 28.5024C25.3814 28.3904 25.3174 28.1944 25.3174 27.9144V25.8184H27.1934V26.3144H25.8734V26.9824H26.7974L26.7574 27.4784H25.8734V27.8744C25.8734 27.9864 25.8987 28.0637 25.9494 28.1064C26 28.149 26.0921 28.1704 26.2254 28.1704H27.1934V28.6664Z" fill="#8C654E"/>
<path d="M24.5734 25.8184L23.6774 28.5064C23.6294 28.629 23.5441 28.6904 23.4214 28.6904C23.2934 28.6904 23.2054 28.629 23.1574 28.5064L22.2734 25.8184H22.8494L23.4214 27.6744L23.9934 25.8184H24.5734Z" fill="#8C654E"/>
<path d="M21.8021 28.6664H21.2221L21.0621 28.1744H20.1061L19.9501 28.6664H19.3701L20.2821 26.0584C20.3221 25.9677 20.3661 25.905 20.4141 25.8704C20.4648 25.8357 20.5261 25.8184 20.5981 25.8184C20.6701 25.8184 20.7275 25.8344 20.7701 25.8664C20.8155 25.8984 20.8555 25.9624 20.8901 26.0584L21.8021 28.6664ZM20.9341 27.7064L20.5981 26.5784L20.2461 27.7064H20.9341Z" fill="#8C654E"/>
<path d="M18.7992 27.8259C18.7992 28.0953 18.7005 28.3073 18.5032 28.4619C18.3058 28.6139 18.0538 28.6899 17.7472 28.6899C17.5045 28.6899 17.2698 28.6233 17.0432 28.4899C16.9312 28.4206 16.8392 28.3233 16.7672 28.1979C16.6952 28.0699 16.6592 27.9246 16.6592 27.7619L17.1632 27.7379C17.1632 27.8819 17.2245 27.9939 17.3472 28.0739C17.4698 28.1539 17.6058 28.1939 17.7552 28.1939C18.0885 28.1939 18.2552 28.0766 18.2552 27.8419C18.2552 27.6499 18.1418 27.5366 17.9152 27.5019L17.4512 27.4539C17.2192 27.4193 17.0352 27.3366 16.8992 27.2059C16.7632 27.0753 16.6952 26.8873 16.6952 26.6419C16.6952 26.3966 16.7925 26.1939 16.9872 26.0339C17.1818 25.8739 17.4272 25.7939 17.7232 25.7939C18.0218 25.7939 18.2618 25.8699 18.4432 26.0219C18.6245 26.1713 18.7152 26.3646 18.7152 26.6019L18.2192 26.6259C18.1738 26.3939 18.0178 26.2779 17.7512 26.2779C17.5885 26.2779 17.4605 26.3126 17.3672 26.3819C17.2765 26.4513 17.2312 26.5339 17.2312 26.6299C17.2312 26.7233 17.2645 26.7979 17.3312 26.8539C17.3978 26.9073 17.4805 26.9406 17.5792 26.9539L18.0352 27.0019C18.5445 27.0713 18.7992 27.3459 18.7992 27.8259Z" fill="#8C654E"/>
</svg>
