<svg width="114" height="28" viewBox="0 0 114 28" fill="none" xmlns="http://www.w3.org/2000/svg">
<path d="M7.32558 4.83L7.39535 9.66H7.53488C8.51163 6.93 10.9535 4.69 14.5116 4.69C19.1163 4.69 20.5116 7 20.5116 11.41V20.09C20.5116 22.75 20.6512 25.48 21.2791 27.51H13.814C14.4419 25.55 14.5116 23.17 14.5116 20.3V12.04C14.5116 10.01 13.7442 9.1 11.5116 9.1C9.83721 9.1 8.5814 9.59 7.60465 10.43V20.37C7.60465 23.24 7.67442 25.62 8.30233 27.58H0.906977C1.60465 25.55 1.67442 22.75 1.67442 20.16V12.04C1.67442 9.87 0.906977 7.91 0 6.93L7.32558 4.83ZM34.1163 23.24V15.12C33.6279 15.82 33.0698 16.24 31.4651 16.94C29.3721 17.99 28.6047 19.11 28.6047 21.42C28.6047 23.38 29.7209 24.64 31.3953 24.64C33.0698 24.71 33.6279 24.08 34.1163 23.24ZM32.1628 4.76C37.8837 4.76 40.0465 7.07 40.0465 11.76V21.56C40.0465 23.31 40.7442 23.87 42.1395 23.87C42.3488 23.87 43.1163 23.73 43.3256 23.52C43.186 24.22 43.1163 24.57 42.9767 24.92C42.2791 26.88 41.093 28 38.7209 28C35.8605 28 34.4651 25.97 34.3954 23.94H34.3256C33.3488 26.81 31.5349 28 28.6047 28C25.0465 28 22.7442 25.83 22.7442 22.47C22.7442 18.9 25.9535 17.36 29.3023 16.1C32.5116 14.84 34.186 13.93 34.186 11.62V11.13C34.186 8.61 33.4186 7.35 31.0465 7.35C29.5814 7.35 29.0233 8.05 28.7442 9.45C28.2558 11.62 27.4186 12.39 26.0233 12.39C24.7674 12.39 23.5814 11.55 23.5814 9.94C23.4419 6.86 27.7674 4.76 32.1628 4.76ZM56.3023 25.06C55.5349 26.81 53.6512 28 51 28C46.4651 28 44.6512 25.69 44.6512 21.49V8.33H42.4884V8.19L50.3721 0L50.5116 0.07V5.25H56.2326L55.6744 8.4H50.5814V20.58C50.5814 22.89 51.5581 23.87 53.6512 23.87C55.2558 23.87 56.093 23.66 56.8605 23.24C56.6512 24.01 56.5814 24.43 56.3023 25.06ZM64.4651 5.11V20.51C64.4651 22.82 65.3721 24.08 67.6047 24.08C69.4884 24.08 70.8837 23.45 71.7209 22.4V11.97C71.7209 9.66 71.5116 7.77 70.7442 5.81L77.5814 5.11V20.86C77.5814 24.36 77.9302 25.9 78.4884 27.58H71.7907V23.1H71.7209C70.7442 25.97 68.9302 28 65.093 28C60.2791 28 58.4651 25.06 58.4651 20.72V11.97C58.4651 9.66 58.2558 7.77 57.4884 5.81L64.4651 5.11ZM86.9302 10.43C87.907 6.3 89.7907 4.69 92.3023 4.69C94.6047 4.69 95.7907 5.88 95.7907 7.77C95.7907 9.45 94.814 10.85 93.0698 10.85C92.0233 10.85 91.3953 10.36 90.9767 9.94C90.4884 9.45 90.1395 8.96 89.5814 8.96C88.3953 8.96 87.0698 10.99 87.0698 14.35V19.95C87.0698 22.68 87.2791 25.41 87.8372 27.51H80.4419C81.1395 25.48 81.2093 22.68 81.2093 20.09V12.04C81.2093 9.87 80.4419 7.91 79.5349 6.93L86.7907 4.83L86.8605 4.9V10.5L86.9302 10.43ZM100.953 13.72L108.419 13.02C108.349 9.45 107.791 7.35 105.349 7.35C102.837 7.42 101.372 9.45 100.953 13.72ZM105.419 28C99.6977 28 95.0233 24.22 95.0233 16.94C95.0233 9.59 99.4884 4.62 105.558 4.62C111.279 4.62 114 8.26 114 15.19H100.953V15.89C100.953 21.42 103.814 23.66 107.721 23.66C111.279 23.66 112.814 22.26 113.86 21.21L114 21.56C113.023 24.92 110.372 28 105.419 28Z" fill="white"/>
</svg>
