<svg width="36" height="12" viewBox="0 0 36 12" fill="none" xmlns="http://www.w3.org/2000/svg">
<path d="M3.9822 1.73377C3.83517 0.639032 2.82851 -0.129236 1.73377 0.0177987C0.639032 0.164833 -0.129236 1.17149 0.0177987 2.26623L3.9822 1.73377ZM19.9822 2.26623C20.1292 1.17149 19.361 0.164832 18.2662 0.0177985C17.1715 -0.129235 16.1648 0.639032 16.0178 1.73377L19.9822 2.26623ZM0.142871 2.92253C0.389969 3.99911 1.46302 4.67153 2.5396 4.42444C3.61617 4.17734 4.2886 3.10429 4.0415 2.02771L0.142871 2.92253ZM4.2522 2.76751C3.89862 1.72106 2.76368 1.15937 1.71723 1.51295C0.670776 1.86653 0.109092 3.00147 0.462668 4.04792L4.2522 2.76751ZM0.886938 5.1301C1.33928 6.1378 2.52287 6.58801 3.53058 6.13567C4.53828 5.68333 4.98849 4.49974 4.53615 3.49204L0.886938 5.1301ZM4.88484 4.1745C4.33154 3.2185 3.10801 2.89206 2.15201 3.44537C1.19602 3.99867 0.869575 5.2222 1.42288 6.1782L4.88484 4.1745ZM2.07725 7.17659C2.73438 8.06443 3.98683 8.25145 4.87466 7.59431C5.7625 6.93718 5.94952 5.68474 5.29238 4.7969L2.07725 7.17659ZM5.75707 5.35103C4.99538 4.55109 3.72943 4.52009 2.92949 5.28179C2.12956 6.04348 2.09856 7.30943 2.86025 8.10936L5.75707 5.35103ZM3.77051 8.94683C4.63172 9.63848 5.89057 9.50103 6.58222 8.63982C7.27388 7.7786 7.13643 6.51976 6.27521 5.8281L3.77051 8.94683ZM6.8441 6.22383C5.89578 5.65747 4.66789 5.96712 4.10153 6.91544C3.53518 7.86376 3.84482 9.09165 4.79315 9.65801L6.8441 6.22383ZM5.90304 10.2209C6.92 10.6521 8.0939 10.1771 8.52502 9.16019C8.95614 8.14323 8.48122 6.96933 7.46426 6.53821L5.90304 10.2209ZM8.13473 6.77139C7.07038 6.47603 5.96812 7.09942 5.67277 8.16377C5.37741 9.22812 6.0008 10.3304 7.06515 10.6257L8.13473 6.77139ZM8.2426 10.8775C9.33437 11.0452 10.3554 10.2961 10.523 9.20431C10.6907 8.11255 9.9416 7.09156 8.84983 6.92388L8.2426 10.8775ZM9.60669 6.99864C8.50337 6.94618 7.56642 7.79807 7.51395 8.90139C7.46149 10.0047 8.31337 10.9417 9.4167 10.9941L9.60669 6.99864ZM10.5833 10.9941C11.6866 10.9417 12.5385 10.0047 12.486 8.90139C12.4336 7.79807 11.4966 6.94618 10.3933 6.99864L10.5833 10.9941ZM11.1502 6.92388C10.0584 7.09156 9.30929 8.11255 9.47697 9.20431C9.64465 10.2961 10.6656 11.0452 11.7574 10.8775L11.1502 6.92388ZM12.9349 10.6257C13.9992 10.3304 14.6226 9.22812 14.3272 8.16377C14.0319 7.09942 12.9296 6.47603 11.8653 6.77139L12.9349 10.6257ZM12.5357 6.53821C11.5188 6.96933 11.0439 8.14323 11.475 9.16019C11.9061 10.1771 13.08 10.6521 14.097 10.2209L12.5357 6.53821ZM15.2069 9.65801C16.1552 9.09165 16.4648 7.86376 15.8985 6.91544C15.3321 5.96712 14.1042 5.65747 13.1559 6.22383L15.2069 9.65801ZM13.7248 5.8281C12.8636 6.51976 12.7261 7.7786 13.4178 8.63982C14.1094 9.50103 15.3683 9.63848 16.2295 8.94683L13.7248 5.8281ZM17.1398 8.10936C17.9014 7.30943 17.8704 6.04348 17.0705 5.28178C16.2706 4.52009 15.0046 4.55109 14.2429 5.35103L17.1398 8.10936ZM14.7076 4.7969C14.0505 5.68474 14.2375 6.93718 15.1253 7.59431C16.0132 8.25145 17.2656 8.06443 17.9228 7.17659L14.7076 4.7969ZM18.5771 6.1782C19.1304 5.2222 18.804 3.99867 17.848 3.44536C16.892 2.89206 15.6685 3.2185 15.1152 4.1745L18.5771 6.1782ZM15.4638 3.49204C15.0115 4.49974 15.4617 5.68333 16.4694 6.13567C17.4771 6.58801 18.6607 6.1378 19.1131 5.1301L15.4638 3.49204ZM19.5373 4.04792C19.8909 3.00147 19.3292 1.86653 18.2828 1.51295C17.2363 1.15937 16.1014 1.72106 15.7478 2.76751L19.5373 4.04792ZM15.9585 2.02771C15.7114 3.10429 16.3838 4.17734 17.4604 4.42444C18.537 4.67153 19.61 3.99911 19.8571 2.92253L15.9585 2.02771ZM2 2C0.0177987 2.26623 0.0178192 2.26638 0.0178399 2.26654C0.0178468 2.26659 0.0178677 2.26674 0.0178816 2.26685C0.0179098 2.26706 0.0179383 2.26727 0.0179672 2.26748C0.018025 2.26791 0.0180845 2.26835 0.0181456 2.2688C0.0182679 2.2697 0.0183969 2.27065 0.0185325 2.27164C0.0188038 2.27362 0.0191021 2.27578 0.019428 2.27812C0.0200797 2.2828 0.0208423 2.28819 0.021721 2.29427C0.0234782 2.30642 0.025701 2.32137 0.0284339 2.33898C0.0338978 2.3742 0.0414109 2.42016 0.0513296 2.47594C0.0711473 2.5874 0.100688 2.73875 0.142871 2.92253L4.0415 2.02771C4.01529 1.91352 3.99874 1.82731 3.98956 1.7757C3.98498 1.74995 3.98227 1.733 3.98114 1.72569C3.98057 1.72204 3.9804 1.72082 3.98059 1.72212C3.98069 1.72278 3.98087 1.72406 3.98114 1.726C3.98127 1.72697 3.98143 1.7281 3.98161 1.72939C3.9817 1.73004 3.98179 1.73073 3.98189 1.73146C3.98194 1.73182 3.98199 1.7322 3.98204 1.73258C3.98207 1.73278 3.98209 1.73297 3.98212 1.73317C3.98213 1.73327 3.98215 1.73342 3.98216 1.73347C3.98218 1.73362 3.9822 1.73377 2 2ZM0.462668 4.04792C0.574688 4.37946 0.714099 4.74505 0.886938 5.1301L4.53615 3.49204C4.42131 3.23619 4.32776 2.99113 4.2522 2.76751L0.462668 4.04792ZM1.42288 6.1782C1.61335 6.50728 1.83029 6.84293 2.07725 7.17659L5.29238 4.7969C5.14198 4.59369 5.00655 4.38477 4.88484 4.1745L1.42288 6.1782ZM2.86025 8.10936C3.13579 8.39874 3.43844 8.68014 3.77051 8.94683L6.27521 5.8281C6.08922 5.67873 5.91688 5.51886 5.75707 5.35103L2.86025 8.10936ZM4.79315 9.65801C5.13998 9.86514 5.50965 10.0542 5.90304 10.2209L7.46426 6.53821C7.24232 6.44412 7.03612 6.33851 6.8441 6.22383L4.79315 9.65801ZM7.06515 10.6257C7.44194 10.7303 7.83434 10.8148 8.2426 10.8775L8.84983 6.92388C8.59484 6.88472 8.35692 6.83304 8.13473 6.77139L7.06515 10.6257ZM9.4167 10.9941C9.60828 11.0032 9.8027 11.0078 10 11.0078V7.00785C9.86503 7.00785 9.73396 7.0047 9.60669 6.99864L9.4167 10.9941ZM10 11.0078C10.1973 11.0078 10.3917 11.0032 10.5833 10.9941L10.3933 6.99864C10.266 7.0047 10.135 7.00785 10 7.00785V11.0078ZM11.7574 10.8775C12.1657 10.8148 12.5581 10.7303 12.9349 10.6257L11.8653 6.77139C11.6431 6.83304 11.4052 6.88472 11.1502 6.92388L11.7574 10.8775ZM14.097 10.2209C14.4904 10.0542 14.86 9.86514 15.2069 9.65801L13.1559 6.22383C12.9639 6.33851 12.7577 6.44412 12.5357 6.53821L14.097 10.2209ZM16.2295 8.94683C16.5616 8.68014 16.8642 8.39874 17.1398 8.10936L14.2429 5.35103C14.0831 5.51886 13.9108 5.67873 13.7248 5.8281L16.2295 8.94683ZM17.9228 7.17659C18.1697 6.84293 18.3867 6.50728 18.5771 6.1782L15.1152 4.1745C14.9935 4.38477 14.858 4.59369 14.7076 4.7969L17.9228 7.17659ZM19.1131 5.1301C19.2859 4.74505 19.4253 4.37946 19.5373 4.04792L15.7478 2.76751C15.6722 2.99113 15.5787 3.23619 15.4638 3.49204L19.1131 5.1301ZM19.8571 2.92253C19.8993 2.73875 19.9289 2.5874 19.9487 2.47594C19.9586 2.42016 19.9661 2.3742 19.9716 2.33898C19.9743 2.32137 19.9765 2.30642 19.9783 2.29427C19.9792 2.28819 19.9799 2.2828 19.9806 2.27812C19.9809 2.27578 19.9812 2.27362 19.9815 2.27164C19.9816 2.27065 19.9817 2.2697 19.9819 2.2688C19.9819 2.26835 19.982 2.26791 19.982 2.26748C19.9821 2.26727 19.9821 2.26705 19.9821 2.26685C19.9821 2.26674 19.9822 2.26659 19.9822 2.26653C19.9822 2.26638 19.9822 2.26623 18 2C16.0178 1.73377 16.0178 1.73362 16.0178 1.73347C16.0178 1.73342 16.0179 1.73327 16.0179 1.73317C16.0179 1.73297 16.0179 1.73278 16.018 1.73258C16.018 1.7322 16.0181 1.73182 16.0181 1.73146C16.0182 1.73073 16.0183 1.73004 16.0184 1.72939C16.0186 1.7281 16.0187 1.72697 16.0189 1.726C16.0191 1.72407 16.0193 1.72278 16.0194 1.72212C16.0196 1.72082 16.0194 1.72204 16.0189 1.72569C16.0177 1.733 16.015 1.74995 16.0104 1.7757C16.0013 1.82732 15.9847 1.91352 15.9585 2.02771L19.8571 2.92253Z" fill="#1EC800"/>
<path d="M19.9822 1.73377C19.8352 0.639032 18.8285 -0.129236 17.7338 0.0177987C16.639 0.164833 15.8708 1.17149 16.0178 2.26623L19.9822 1.73377ZM35.9822 2.26623C36.1292 1.17149 35.361 0.164832 34.2662 0.0177985C33.1715 -0.129235 32.1648 0.639032 32.0178 1.73377L35.9822 2.26623ZM16.1429 2.92253C16.39 3.99911 17.463 4.67153 18.5396 4.42444C19.6162 4.17734 20.2886 3.10429 20.0415 2.02771L16.1429 2.92253ZM20.2522 2.76751C19.8986 1.72106 18.7637 1.15937 17.7172 1.51295C16.6708 1.86653 16.1091 3.00147 16.4627 4.04792L20.2522 2.76751ZM16.8869 5.1301C17.3393 6.1378 18.5229 6.58801 19.5306 6.13567C20.5383 5.68333 20.9885 4.49974 20.5362 3.49204L16.8869 5.1301ZM20.8848 4.1745C20.3315 3.2185 19.108 2.89206 18.152 3.44537C17.196 3.99867 16.8696 5.2222 17.4229 6.1782L20.8848 4.1745ZM18.0772 7.17659C18.7344 8.06443 19.9868 8.25145 20.8747 7.59431C21.7625 6.93718 21.9495 5.68474 21.2924 4.7969L18.0772 7.17659ZM21.7571 5.35103C20.9954 4.55109 19.7294 4.52009 18.9295 5.28179C18.1296 6.04348 18.0986 7.30943 18.8603 8.10936L21.7571 5.35103ZM19.7705 8.94683C20.6317 9.63848 21.8906 9.50103 22.5822 8.63982C23.2739 7.7786 23.1364 6.51976 22.2752 5.8281L19.7705 8.94683ZM22.8441 6.22383C21.8958 5.65747 20.6679 5.96712 20.1015 6.91544C19.5352 7.86376 19.8448 9.09165 20.7931 9.65801L22.8441 6.22383ZM21.903 10.2209C22.92 10.6521 24.0939 10.1771 24.525 9.16019C24.9561 8.14323 24.4812 6.96933 23.4643 6.53821L21.903 10.2209ZM24.1347 6.77139C23.0704 6.47603 21.9681 7.09942 21.6728 8.16377C21.3774 9.22812 22.0008 10.3304 23.0652 10.6257L24.1347 6.77139ZM24.2426 10.8775C25.3344 11.0452 26.3554 10.2961 26.523 9.20431C26.6907 8.11255 25.9416 7.09156 24.8498 6.92388L24.2426 10.8775ZM25.6067 6.99864C24.5034 6.94618 23.5664 7.79807 23.514 8.90139C23.4615 10.0047 24.3134 10.9417 25.4167 10.9941L25.6067 6.99864ZM26.5833 10.9941C27.6866 10.9417 28.5385 10.0047 28.486 8.90139C28.4336 7.79807 27.4966 6.94618 26.3933 6.99864L26.5833 10.9941ZM27.1502 6.92388C26.0584 7.09156 25.3093 8.11255 25.477 9.20431C25.6446 10.2961 26.6656 11.0452 27.7574 10.8775L27.1502 6.92388ZM28.9349 10.6257C29.9992 10.3304 30.6226 9.22812 30.3272 8.16377C30.0319 7.09942 28.9296 6.47603 27.8653 6.77139L28.9349 10.6257ZM28.5357 6.53821C27.5188 6.96933 27.0439 8.14323 27.475 9.16019C27.9061 10.1771 29.08 10.6521 30.097 10.2209L28.5357 6.53821ZM31.2069 9.65801C32.1552 9.09165 32.4648 7.86376 31.8985 6.91544C31.3321 5.96712 30.1042 5.65747 29.1559 6.22383L31.2069 9.65801ZM29.7248 5.8281C28.8636 6.51976 28.7261 7.7786 29.4178 8.63982C30.1094 9.50103 31.3683 9.63848 32.2295 8.94683L29.7248 5.8281ZM33.1398 8.10936C33.9014 7.30943 33.8704 6.04348 33.0705 5.28178C32.2706 4.52009 31.0046 4.55109 30.2429 5.35103L33.1398 8.10936ZM30.7076 4.7969C30.0505 5.68474 30.2375 6.93718 31.1253 7.59431C32.0132 8.25145 33.2656 8.06443 33.9228 7.17659L30.7076 4.7969ZM34.5771 6.1782C35.1304 5.2222 34.804 3.99867 33.848 3.44536C32.892 2.89206 31.6685 3.2185 31.1152 4.1745L34.5771 6.1782ZM31.4638 3.49204C31.0115 4.49974 31.4617 5.68333 32.4694 6.13567C33.4771 6.58801 34.6607 6.1378 35.1131 5.1301L31.4638 3.49204ZM35.5373 4.04792C35.8909 3.00147 35.3292 1.86653 34.2828 1.51295C33.2363 1.15937 32.1014 1.72106 31.7478 2.76751L35.5373 4.04792ZM31.9585 2.02771C31.7114 3.10429 32.3838 4.17734 33.4604 4.42444C34.537 4.67153 35.61 3.99911 35.8571 2.92253L31.9585 2.02771ZM18 2C16.0178 2.26623 16.0178 2.26638 16.0178 2.26654C16.0178 2.26659 16.0179 2.26674 16.0179 2.26685C16.0179 2.26706 16.0179 2.26727 16.018 2.26748C16.018 2.26791 16.0181 2.26835 16.0181 2.2688C16.0183 2.2697 16.0184 2.27065 16.0185 2.27164C16.0188 2.27362 16.0191 2.27578 16.0194 2.27812C16.0201 2.2828 16.0208 2.28819 16.0217 2.29427C16.0235 2.30642 16.0257 2.32137 16.0284 2.33898C16.0339 2.3742 16.0414 2.42016 16.0513 2.47594C16.0711 2.5874 16.1007 2.73875 16.1429 2.92253L20.0415 2.02771C20.0153 1.91352 19.9987 1.82731 19.9896 1.7757C19.985 1.74995 19.9823 1.733 19.9811 1.72569C19.9806 1.72204 19.9804 1.72082 19.9806 1.72212C19.9807 1.72278 19.9809 1.72406 19.9811 1.726C19.9813 1.72697 19.9814 1.7281 19.9816 1.72939C19.9817 1.73004 19.9818 1.73073 19.9819 1.73146C19.9819 1.73182 19.982 1.7322 19.982 1.73258C19.9821 1.73278 19.9821 1.73297 19.9821 1.73317C19.9821 1.73327 19.9822 1.73342 19.9822 1.73347C19.9822 1.73362 19.9822 1.73377 18 2ZM16.4627 4.04792C16.5747 4.37946 16.7141 4.74505 16.8869 5.1301L20.5362 3.49204C20.4213 3.23619 20.3278 2.99113 20.2522 2.76751L16.4627 4.04792ZM17.4229 6.1782C17.6133 6.50728 17.8303 6.84293 18.0772 7.17659L21.2924 4.7969C21.142 4.59369 21.0065 4.38477 20.8848 4.1745L17.4229 6.1782ZM18.8603 8.10936C19.1358 8.39874 19.4384 8.68014 19.7705 8.94683L22.2752 5.8281C22.0892 5.67873 21.9169 5.51886 21.7571 5.35103L18.8603 8.10936ZM20.7931 9.65801C21.14 9.86514 21.5096 10.0542 21.903 10.2209L23.4643 6.53821C23.2423 6.44412 23.0361 6.33851 22.8441 6.22383L20.7931 9.65801ZM23.0652 10.6257C23.4419 10.7303 23.8343 10.8148 24.2426 10.8775L24.8498 6.92388C24.5948 6.88472 24.3569 6.83304 24.1347 6.77139L23.0652 10.6257ZM25.4167 10.9941C25.6083 11.0032 25.8027 11.0078 26 11.0078V7.00785C25.865 7.00785 25.734 7.0047 25.6067 6.99864L25.4167 10.9941ZM26 11.0078C26.1973 11.0078 26.3917 11.0032 26.5833 10.9941L26.3933 6.99864C26.266 7.0047 26.135 7.00785 26 7.00785V11.0078ZM27.7574 10.8775C28.1657 10.8148 28.5581 10.7303 28.9349 10.6257L27.8653 6.77139C27.6431 6.83304 27.4052 6.88472 27.1502 6.92388L27.7574 10.8775ZM30.097 10.2209C30.4904 10.0542 30.86 9.86514 31.2069 9.65801L29.1559 6.22383C28.9639 6.33851 28.7577 6.44412 28.5357 6.53821L30.097 10.2209ZM32.2295 8.94683C32.5616 8.68014 32.8642 8.39874 33.1398 8.10936L30.2429 5.35103C30.0831 5.51886 29.9108 5.67873 29.7248 5.8281L32.2295 8.94683ZM33.9228 7.17659C34.1697 6.84293 34.3867 6.50728 34.5771 6.1782L31.1152 4.1745C30.9935 4.38477 30.858 4.59369 30.7076 4.7969L33.9228 7.17659ZM35.1131 5.1301C35.2859 4.74505 35.4253 4.37946 35.5373 4.04792L31.7478 2.76751C31.6722 2.99113 31.5787 3.23619 31.4638 3.49204L35.1131 5.1301ZM35.8571 2.92253C35.8993 2.73875 35.9289 2.5874 35.9487 2.47594C35.9586 2.42016 35.9661 2.3742 35.9716 2.33898C35.9743 2.32137 35.9765 2.30642 35.9783 2.29427C35.9792 2.28819 35.9799 2.2828 35.9806 2.27812C35.9809 2.27578 35.9812 2.27362 35.9815 2.27164C35.9816 2.27065 35.9817 2.2697 35.9819 2.2688C35.9819 2.26835 35.982 2.26791 35.982 2.26748C35.9821 2.26727 35.9821 2.26705 35.9821 2.26685C35.9821 2.26674 35.9822 2.26659 35.9822 2.26653C35.9822 2.26638 35.9822 2.26623 34 2C32.0178 1.73377 32.0178 1.73362 32.0178 1.73347C32.0178 1.73342 32.0179 1.73327 32.0179 1.73317C32.0179 1.73297 32.0179 1.73278 32.018 1.73258C32.018 1.7322 32.0181 1.73182 32.0181 1.73146C32.0182 1.73073 32.0183 1.73004 32.0184 1.72939C32.0186 1.7281 32.0187 1.72697 32.0189 1.726C32.0191 1.72407 32.0193 1.72278 32.0194 1.72212C32.0196 1.72082 32.0194 1.72204 32.0189 1.72569C32.0177 1.733 32.015 1.74995 32.0104 1.7757C32.0013 1.82732 31.9847 1.91352 31.9585 2.02771L35.8571 2.92253Z" fill="#1EC800"/>
</svg>
