<svg width="32" height="32" viewBox="0 0 32 32" fill="none" xmlns="http://www.w3.org/2000/svg">
<path fill-rule="evenodd" clip-rule="evenodd" d="M4.66718 14.8393C4.66718 20.4576 9.22171 25.0122 14.84 25.0122C17.1908 25.0122 19.3554 24.2148 21.0781 22.8757L25.3853 27.183C25.8819 27.6795 26.687 27.6795 27.1836 27.183C27.6802 26.6864 27.6802 25.8812 27.1836 25.3846L22.8764 21.0774C24.2155 19.3548 25.0129 17.1902 25.0129 14.8393C25.0129 9.22104 20.4583 4.6665 14.84 4.6665C9.22171 4.6665 4.66718 9.22104 4.66718 14.8393ZM7.21039 14.8393C7.21039 19.0531 10.6263 22.469 14.84 22.469C19.0537 22.469 22.4696 19.0531 22.4696 14.8393C22.4696 10.6256 19.0537 7.20971 14.84 7.20971C10.6263 7.20971 7.21039 10.6256 7.21039 14.8393Z" fill="#525C66"/>
</svg>
